<svg width="130" height="47" viewBox="0 0 130 47" fill="none" xmlns="http://www.w3.org/2000/svg">
<g clip-path="url(#clip0)">
<path d="M41.7924 20.4967L41.8274 24.7736L48.1667 24.7217L48.3066 41.7986L52.7413 41.7623L52.6013 24.6853L58.9406 24.6334L58.9055 20.3565L41.7924 20.4967ZM78.1777 21.4389C76.8827 20.5617 74.9516 20.1058 72.5742 20.1253C71.5028 20.1341 66.2254 20.2905 66.003 20.2984L65.1655 20.3226L65.3404 41.6591L69.8038 41.6225L69.7404 33.8834L72.5907 33.8601C74.2853 33.8836 75.96 33.4973 77.4728 32.7338C79.5439 31.4217 80.771 29.1199 80.7012 26.6729C80.6816 24.2847 79.8348 22.5229 78.1777 21.4389ZM69.6526 24.5456C70.525 24.5385 71.841 24.465 72.3828 24.4606C75.4835 24.4352 76.1238 25.3795 76.1355 26.8017C76.1519 27.6328 75.7789 28.4244 75.127 28.9424C74.2162 29.3903 73.2041 29.5953 72.1897 29.5348L69.705 29.5552L69.6517 24.5456L69.6526 24.5456ZM90.1607 24.8267C87.9663 24.8282 85.8719 25.7444 84.3835 27.3538C82.8392 28.9593 82.0027 31.1143 82.0611 33.3386C82.0489 35.5747 82.9207 37.7253 84.4877 39.3244C86.0022 40.904 88.1087 41.7832 90.2993 41.7505C91.8254 41.7571 93.3181 41.3097 94.5877 40.4646L94.5933 41.1522L98.9992 41.1161L98.8681 25.1192L94.5377 26.059C93.2351 25.2211 91.7108 24.7914 90.1607 24.8267ZM93.1803 30.1306C93.9811 30.9665 94.4221 32.0814 94.4089 33.2374C94.4446 34.4017 94.0211 35.5341 93.2316 36.3918C92.5173 37.1827 91.5037 37.6384 90.4367 37.6472C89.3706 37.6559 88.3488 37.2169 87.6226 36.4377C86.8181 35.5913 86.3788 34.4634 86.3989 33.2969C86.3641 32.1422 86.7851 31.0203 87.5712 30.1713C88.2748 29.3656 89.291 28.9003 90.3624 28.8916C91.4337 28.8828 92.4574 29.3314 93.1741 30.1254L93.1803 30.1306ZM110.008 31.3975L108.293 30.7579C106.749 30.2013 106.748 30.0307 106.746 29.7983C106.743 29.4336 106.737 28.7626 108.699 28.7465C110.107 28.7385 111.497 29.0639 112.754 29.6969L113.978 30.2561L113.941 25.6668L113.369 25.4608C111.835 24.8972 110.213 24.6119 108.579 24.6192C104.634 24.6515 102.289 26.536 102.315 29.6579C102.341 32.7799 104.63 33.8813 106.391 34.504L108.232 35.1435C110.016 35.7599 110.189 35.9343 110.191 36.2641C110.195 36.7306 110.201 37.5096 107.972 37.5279C106.302 37.5372 104.662 37.078 103.241 36.2018L101.947 35.4726L101.985 40.1873L102.45 40.4228C104.171 41.2521 106.065 41.6648 107.977 41.6283C112.168 41.5939 114.654 39.6178 114.627 36.3479C114.631 33.3502 112.536 32.309 110.008 31.3984L110.008 31.3975ZM124.848 31.2759L123.133 30.6363C121.588 30.0797 121.587 29.9091 121.585 29.6767C121.582 29.3121 121.576 28.641 123.537 28.625C124.946 28.6169 126.336 28.9424 127.593 29.5753L128.817 30.1345L128.78 25.5452L128.208 25.3392C126.674 24.7756 125.051 24.4903 123.418 24.4976C119.473 24.53 117.128 26.4144 117.154 29.5364C117.179 32.6583 119.469 33.7597 121.23 34.3824L123.071 35.0219C124.855 35.6383 125.027 35.8127 125.03 36.1426C125.034 36.6091 125.04 37.388 122.811 37.4063C121.14 37.4156 119.501 36.9564 118.08 36.0803L116.785 35.351L116.824 40.0657L117.288 40.3012C119.01 41.1305 120.904 41.5433 122.816 41.5067C127.006 41.4724 129.492 39.4962 129.466 36.2263C129.47 33.2286 127.403 32.1872 124.847 31.2768L124.848 31.2759Z" fill="#122F53"/>
<path d="M58.7903 41.758C60.0716 41.7475 61.1017 40.7029 61.0912 39.4247C61.0808 38.1466 60.0336 37.119 58.7524 37.1295C57.4712 37.14 56.4411 38.1846 56.4515 39.4628C56.462 40.7409 57.5091 41.7685 58.7903 41.758Z" fill="url(#paint0_linear)"/>
<path d="M14.6315 45.3245C18.9547 45.3245 22.9236 42.7178 23.4803 39.5139L24.3789 31.5622C22.6915 32.4091 22.1471 34.2839 18.59 32.8278C18.59 32.8278 15.073 30.9138 14.0923 30.617C9.22651 29.1383 4.62067 33.1002 4.57704 33.1611L5.85523 39.4217C6.41711 42.6595 10.3572 45.3245 14.6315 45.3245Z" fill="url(#paint1_linear)"/>
<path d="M26.5087 15.3335C26.13 10.1505 22.4926 5.78034 17.4549 4.4565L17.7306 1.90371L19.9266 0.787023L20.0139 0.742635L21.573 -0.0398288C21.8967 -0.202588 22.1428 -0.486329 22.257 -0.830125C22.3705 -1.17305 22.3434 -1.54731 22.1803 -1.87109L21.9883 -2.24883C21.9665 -2.29061 21.943 -2.33151 21.9177 -2.37068C21.5407 -2.95992 20.7782 -3.16881 20.1526 -2.85374L19.6815 -2.61612L19.6474 -2.59959L15.2013 -0.397551C14.943 -0.280051 14.765 -0.0346067 14.7345 0.247393L14.3227 4.0483C7.90121 4.06832 2.6698 9.04161 2.21262 15.3335C0.92745 15.5816 0 16.7026 0 18.0064V19.2867C0.00174497 20.742 1.15168 21.937 2.60872 22.0006L4.40866 35.9047C4.77074 40.2566 8.21443 43.5405 12.4146 43.5405H16.5414C20.7424 43.5405 24.1844 40.2592 24.5421 35.9543L26.349 21.9805C27.7031 21.803 28.7169 20.6541 28.7195 19.2911V18.0117C28.7213 16.7052 27.793 15.5816 26.5078 15.3335H26.5087ZM14.3602 6.09019C19.637 6.09019 23.9706 10.1374 24.4496 15.2813H22.449C21.9796 11.2323 18.5446 8.08421 14.3628 8.08421C10.1819 8.08421 6.73819 11.2323 6.27141 15.2822H4.27081C4.74893 10.1383 9.0808 6.09106 14.3602 6.09106V6.09019ZM20.4972 15.2813H18.282C17.8562 13.4631 16.2317 12.1776 14.3602 12.1776C12.4887 12.1776 10.8642 13.4631 10.4384 15.2813H8.22403C8.68383 12.255 11.2917 10.019 14.3602 10.019C17.4287 10.019 20.0366 12.2559 20.4972 15.2813ZM5.68685 29.4361L4.7245 22.0136H12.3395L11.8466 26.6875C8.95255 26.5935 6.8996 28.128 5.68685 29.4361ZM22.4542 35.7307C22.1838 38.9876 19.6405 41.4429 16.5405 41.4429H12.4154C9.31463 41.4429 6.77221 38.9876 6.49651 35.681L5.99483 31.8018C6.45376 31.0428 8.31564 28.3682 11.6668 28.4004L11.0474 34.2797C10.9662 35.0483 11.5081 35.742 12.2593 35.8246L12.6807 35.8717C12.7278 35.8769 12.774 35.8804 12.8211 35.8804C13.5313 35.8743 14.1211 35.332 14.1866 34.627L14.7642 29.1376C14.8732 29.1863 14.9805 29.2307 15.0913 29.2856C18.9538 31.1717 21.6367 30.6042 23.2246 29.7773L22.4551 35.7307H22.4542ZM23.5221 27.4795C23.0021 28.0192 20.5941 30.075 15.8417 27.7554C15.5381 27.6075 15.2432 27.4822 14.9517 27.3664L15.5154 22.0119H24.2289L23.5221 27.4795ZM26.6448 19.285C26.6448 19.4591 26.5767 19.6262 26.4537 19.7489C26.3315 19.8725 26.164 19.9421 25.9904 19.943H2.73262C2.37054 19.943 2.07651 19.6497 2.07564 19.2885V18.0082C2.07651 17.647 2.37054 17.3537 2.73262 17.3537H25.9904C26.3525 17.3537 26.6456 17.647 26.6465 18.0082L26.6448 19.285Z" fill="#122F53"/>
<path d="M16.763 40.9335C16.1313 41.0702 15.73 41.6907 15.867 42.3209C16.0031 42.951 16.626 43.3514 17.2568 43.2165C17.8885 43.0807 18.2907 42.4593 18.1555 41.83C18.0901 41.5262 17.906 41.2617 17.6451 41.0937C17.3833 40.9257 17.0666 40.8674 16.763 40.9335ZM17.605 38.3311C17.3877 38.379 17.2211 38.5513 17.1809 38.7698C17.1417 38.9874 17.2376 39.2084 17.4252 39.3286C17.6111 39.4478 17.8527 39.4443 18.0351 39.3172C18.2174 39.191 18.3056 38.9674 18.2584 38.7515C18.1939 38.4556 17.9016 38.2676 17.605 38.332V38.3311ZM10.0109 41.6751C9.79012 41.7229 9.64965 41.9405 9.69764 42.1616C9.74563 42.3818 9.96375 42.5219 10.1845 42.4732C10.4061 42.4253 10.5457 42.2086 10.4986 41.9875C10.475 41.8822 10.4113 41.79 10.3197 41.7308C10.2281 41.6725 10.1173 41.6524 10.0109 41.6751ZM14.5504 39.0622C14.2433 39.1284 14.0068 39.3729 13.951 39.6811C13.8952 39.99 14.0313 40.3016 14.2956 40.4705C14.56 40.6402 14.9003 40.6341 15.1585 40.4557C15.4159 40.2764 15.5407 39.9604 15.4744 39.6549C15.3827 39.2372 14.9692 38.9717 14.5504 39.0622ZM9.93496 39.0622C9.51616 39.1536 9.25006 39.5662 9.34167 39.9839C9.43241 40.4017 9.84596 40.6672 10.2648 40.5758C10.6835 40.4853 10.9497 40.0727 10.858 39.6541C10.8144 39.4539 10.6931 39.2781 10.5195 39.1667C10.3468 39.0561 10.1356 39.0187 9.93496 39.0622ZM17.1792 37.0273C17.6259 36.9307 17.9697 36.5747 18.0517 36.1273C18.1319 35.6791 17.9348 35.2256 17.5509 34.9793C17.167 34.733 16.6714 34.7417 16.2962 35.0019C15.9211 35.2613 15.7405 35.7209 15.8373 36.1656C15.9699 36.7731 16.5702 37.1587 17.1801 37.0273H17.1792ZM12.0647 41.4906C11.7017 41.7177 11.5909 42.1956 11.8178 42.5576C12.0446 42.9197 12.5236 43.0311 12.8866 42.8048C13.2504 42.5794 13.3621 42.1024 13.137 41.7395C13.0279 41.5645 12.8534 41.4401 12.6527 41.3931C12.4512 41.3469 12.2401 41.3818 12.0647 41.4914V41.4906ZM19.8725 37.5356C20.0994 37.8977 20.5792 38.0082 20.9422 37.781C21.306 37.5547 21.416 37.076 21.1891 36.7131C20.9623 36.351 20.4824 36.2405 20.1186 36.4676C19.9441 36.5764 19.8193 36.7496 19.7731 36.9507C19.7268 37.1509 19.7626 37.3615 19.8725 37.5356ZM19.7705 39.7429C19.4066 39.9691 19.2958 40.4479 19.5235 40.8099C19.7504 41.1729 20.2294 41.2834 20.5932 41.0562C20.957 40.8299 21.067 40.3512 20.8401 39.9892C20.7311 39.8151 20.5566 39.6906 20.3559 39.6445C20.1552 39.5984 19.9441 39.6341 19.7696 39.7429H19.7705ZM9.49784 36.5381C9.17241 36.0203 8.48925 35.8636 7.971 36.1874C7.45187 36.512 7.29395 37.1935 7.61851 37.7105C7.94308 38.2284 8.6271 38.3859 9.14536 38.0622C9.39489 37.9064 9.57288 37.6583 9.63831 37.3728C9.70462 37.0874 9.65402 36.7862 9.49784 36.5373V36.5381Z" fill="#122F53"/>
</g>
<defs>
<linearGradient id="paint0_linear" x1="56.4572" y1="39.4627" x2="61.0912" y2="39.4247" gradientUnits="userSpaceOnUse">
<stop stop-color="#59C4C9"/>
<stop offset="0.37" stop-color="#41B1BE"/>
<stop offset="1" stop-color="#0F8BA8"/>
</linearGradient>
<linearGradient id="paint1_linear" x1="4.57704" y1="37.8064" x2="24.3783" y2="37.8064" gradientUnits="userSpaceOnUse">
<stop stop-color="#59C4C9"/>
<stop offset="0.37" stop-color="#41B1BE"/>
<stop offset="1" stop-color="#0F8BA8"/>
</linearGradient>
<clipPath id="clip0">
<rect width="130" height="47" fill="white"/>
</clipPath>
</defs>
</svg>
