<svg width="765" height="570" viewBox="0 0 765 570" fill="none" xmlns="http://www.w3.org/2000/svg">
<path d="M423.52 671.499C513.859 670.196 601.399 627.977 672.435 565.136C723.781 519.66 768.758 461.052 786.806 390.397C804.951 319.741 782.077 259.505 733.24 210.665C688.07 165.624 622.536 162.042 572.155 124.598C535.479 97.3563 510.578 39.5079 467.821 28.3289C428.635 18.0183 392.442 37.6628 360.399 65.2303C328.355 92.7979 302.586 114.396 271.314 142.94C246.124 165.949 217.748 184.292 187.442 197.099C132.138 220.542 66.99 228.465 28.5766 278.933C-0.474712 317.245 -6.45871 373.357 6.47444 421.546C19.4076 469.735 49.231 510.326 84.1698 541.693C175.281 623.635 307.315 673.235 423.52 671.499Z" fill="#E3E6E8"/>
<path d="M662.5 431.277C634.3 462.279 588.7 434.03 563.3 402.303C558.8 396.798 555.7 389.41 554.4 381.152C548.6 341.313 592 331.607 593.3 295.824C593.9 280.179 585.8 267.285 579.8 254.247C566.2 224.694 562.3 187.173 565.2 151.824C568.1 116.476 577.2 82.7218 587.9 50.5609C596.6 24.3395 612.2 -5.50351 631.8 0.870736C644.4 4.92707 652.5 23.1806 656.2 41.1444C661.2 65.917 660.5 92.4281 657.1 117.78C655.6 128.935 653.6 140.67 655.7 151.68C661 179.929 688.3 186.303 698.2 211.655C708.1 237.152 696.3 269.168 685.1 294.086C675.5 315.527 669.8 328.855 676 346.963C677.7 351.744 680 356.09 682.9 359.422C689 366.955 700.2 389.845 662.5 431.277Z" fill="#F3AF47"/>
<path d="M625.1 73.8848C625.1 82.7218 619 572.09 619 572.09L643 570.786L625.1 73.8848Z" fill="#7C4A0F"/>
<path d="M626.6 417.225L577 340.444L630.9 410.706C631.8 411.72 632.2 413.458 632 415.052C631.8 416.645 631 417.949 629.9 418.529C628.8 419.108 627.6 418.674 626.8 417.515L626.6 417.225ZM622.1 197.024L602 140.525L626.1 193.836C626.9 194.851 627.2 196.444 626.8 197.748C626.4 199.197 625.4 200.066 624.4 199.921C623.3 199.776 622.5 198.762 622.2 197.168L622.1 197.024ZM627.6 314.802L678 211.511L632.5 319.583C631.6 321.611 629.8 322.335 628.4 321.032C627 319.728 626.6 317.12 627.4 315.092L627.6 314.802Z" fill="#7C4A0F"/>
<path d="M168.5 520.951C149.4 541.957 118.5 522.834 101.4 501.394C98.4 497.627 96.3 492.557 95.4 487.052C91.5 460.106 120.8 453.442 121.7 429.394C122.1 418.818 116.6 410.126 112.5 401.289C103.3 381.152 100.7 355.8 102.6 331.752C104.5 307.704 110.7 284.959 118 263.229C123.9 245.41 134.5 225.273 147.7 229.619C156.2 232.372 161.7 244.686 164.2 256.855C167.6 273.514 167.1 291.478 164.8 308.718C163.8 316.251 162.4 324.074 163.8 331.607C167.4 350.73 185.9 355.076 192.6 372.315C199.3 389.555 191.3 411.285 183.8 428.09C177.4 442.577 173.4 451.559 177.6 464.018C178.8 467.205 180.4 470.102 182.3 472.565C186.4 477.49 194 492.991 168.5 520.951Z" fill="#F8CD99"/>
<path d="M141.8 273.514C141.8 279.889 135.7 586.722 135.7 586.722L153.3 588.895L141.8 273.514Z" fill="#7C6242"/>
<path d="M146.1 459.092L181.9 404.187L143 454.456C142.1 455.615 142.1 457.643 142.9 458.947C143.7 460.251 145 460.396 146 459.237L146.1 459.092ZM139.2 363.189L124.6 321.321L142 360.871C142.4 362.03 142.1 363.333 141.4 364.058C140.7 364.782 139.7 364.492 139.2 363.478C139.3 363.478 139.2 363.189 139.2 363.189Z" fill="#7C6242"/>
<path d="M144.5 450.4L179.7 373.909C179.7 373.909 144.5 450.4 144.5 450.4Z" fill="#9C4F5F"/>
</svg>
